<?xml version="1.0" standalone="no"?>
<!DOCTYPE svg PUBLIC "-//W3C//DTD SVG 20010904//EN"
 "http://www.w3.org/TR/2001/REC-SVG-20010904/DTD/svg10.dtd">
<svg version="1.0" xmlns="http://www.w3.org/2000/svg"
 width="170.000000pt" height="170.000000pt" viewBox="0 0 170.000000 170.000000"
 preserveAspectRatio="xMidYMid meet">
<metadata>
Created by potrace 1.11, written by Peter Selinger 2001-2013
</metadata>
<g transform="translate(0.000000,170.000000) scale(0.100000,-0.100000)"
fill="#000000" stroke="none">
<path d="M678 1609 c-305 -72 -536 -315 -595 -624 -10 -52 -10 -218 0 -275 12
-69 76 -242 96 -260 4 -3 13 -18 21 -33 8 -16 27 -41 42 -58 15 -16 28 -33 28
-39 0 -5 6 -10 14 -10 8 0 17 -8 21 -17 13 -39 250 -183 300 -183 8 0 15 -4
15 -9 0 -6 9 -8 20 -6 12 2 23 -2 27 -11 4 -10 9 -12 18 -4 6 5 14 8 16 5 8
-7 73 -17 108 -16 19 0 41 -5 50 -12 12 -10 13 -9 7 1 -6 9 1 13 26 12 37 -1
74 3 133 16 50 10 46 9 70 19 11 4 35 14 54 21 18 8 38 11 44 7 6 -3 7 -1 3 5
-4 7 -2 12 4 12 6 0 44 22 84 50 41 27 77 46 81 42 4 -4 5 -2 3 4 -2 6 17 31
42 56 25 25 52 56 60 68 8 12 21 28 28 36 6 7 12 17 12 21 0 5 9 19 20 31 12
12 18 22 15 22 -3 0 0 12 8 27 29 55 53 125 62 175 2 13 7 37 10 53 7 39 7
192 0 230 -40 212 -132 369 -289 494 -96 76 -184 117 -347 159 -60 15 -227 11
-311 -9z"/>
</g>
</svg>
