<?xml version="1.0" standalone="no"?>
<!DOCTYPE svg PUBLIC "-//W3C//DTD SVG 20010904//EN"
 "http://www.w3.org/TR/2001/REC-SVG-20010904/DTD/svg10.dtd">
<svg version="1.0" xmlns="http://www.w3.org/2000/svg"
 width="170.000000pt" height="170.000000pt" viewBox="0 0 170.000000 170.000000"
 preserveAspectRatio="xMidYMid meet">
<metadata>
Created by potrace 1.11, written by Peter Selinger 2001-2013
</metadata>
<g transform="translate(0.000000,170.000000) scale(0.100000,-0.100000)"
fill="#000000" stroke="none">
<path d="M660 1610 c-285 -77 -497 -291 -570 -574 -28 -111 -28 -274 1 -382
12 -43 22 -87 22 -96 1 -10 5 -18 10 -18 4 0 6 -4 3 -9 -9 -14 5 -42 17 -34 6
3 7 1 3 -6 -14 -22 75 -153 159 -236 165 -164 342 -232 580 -222 212 9 362 74
511 222 93 92 183 223 168 246 -5 8 -3 9 6 4 10 -6 12 -4 7 8 -3 10 -2 17 4
17 6 0 8 4 5 9 -3 5 3 34 14 66 73 212 38 473 -89 667 -103 158 -254 272 -435
330 -94 31 -316 35 -416 8z m128 -158 c13 -13 29 -89 66 -312 58 -357 66 -394
76 -383 4 4 25 47 45 96 29 66 43 89 60 93 45 11 58 -9 115 -175 30 -89 57
-161 60 -161 3 0 23 35 45 77 61 118 51 113 220 113 l145 0 0 -32 c0 -79 1
-78 -129 -78 l-116 0 -68 -130 c-37 -71 -76 -134 -87 -140 -44 -23 -60 -1
-115 155 -28 82 -56 150 -61 152 -5 1 -27 -42 -49 -97 -46 -115 -52 -125 -82
-134 -46 -15 -57 14 -97 265 -39 246 -50 295 -59 269 -3 -8 -17 -112 -31 -230
-63 -515 -66 -534 -86 -555 -16 -15 -25 -17 -47 -9 -33 11 -31 4 -97 354 -26
135 -50 254 -55 264 -6 16 -15 4 -46 -63 -21 -45 -47 -87 -56 -92 -10 -5 -69
-9 -132 -9 -128 0 -127 -1 -127 78 l0 32 100 0 101 0 72 148 c65 133 75 147
100 150 53 6 48 18 107 -287 28 -145 35 -170 43 -160 2 2 16 103 31 224 71
564 71 567 91 581 25 19 41 18 63 -4z"/>
</g>
</svg>
